<svg xmlns="http://www.w3.org/2000/svg" version="1.1" xmlns:xlink="http://www.w3.org/1999/xlink" xmlns:svgjs="http://svgjs.dev/svgjs" width="2000" height="686" viewBox="0 0 2000 686"><g transform="matrix(1,0,0,1,-1.2121212121213603,-2.0240739516961526)"><svg viewBox="0 0 396 136" data-background-color="#dedede" preserveAspectRatio="xMidYMid meet" height="686" width="2000" xmlns="http://www.w3.org/2000/svg" xmlns:xlink="http://www.w3.org/1999/xlink"><g id="tight-bounds" transform="matrix(1,0,0,1,0.24000000000003752,0.4012741361963208)"><svg viewBox="0 0 395.5199999999999 135.19745172760733" height="135.19745172760733" width="395.5199999999999"><g><svg viewBox="0 0 715.0836814734018 244.43135999999998" height="135.19745172760733" width="395.5199999999999"><g transform="matrix(1,0,0,1,319.56368147340186,58.56471889137237)"><svg viewBox="0 0 395.52 127.30192221725524" height="127.30192221725524" width="395.52"><g id="textblocktransform"><svg viewBox="0 0 395.52 127.30192221725524" height="127.30192221725524" width="395.52" id="textblock"><g><svg viewBox="0 0 395.52 127.30192221725524" height="127.30192221725524" width="395.52"><g transform="matrix(1,0,0,1,0,0)"><svg width="395.52" viewBox="2.75 -35 111.84 36" height="127.30192221725524" data-palette-color="#374151"><path d="M22.7-35L27.4-35 27.4-18.15Q27.4-11.4 24.3-6.43 21.2-1.45 15.1 1L15.1 1Q9.05-1.4 5.9-6.25 2.75-11.1 2.75-17.7L2.75-17.7 2.75-35 7.55-35 7.55-18.3Q7.55-13.3 9.2-9.9 10.85-6.5 15.15-4.15L15.15-4.15Q19.35-6.55 21.03-9.95 22.7-13.35 22.7-18.3L22.7-18.3 22.7-35ZM57.7-17.5L57.7-17.5Q57.65-9.15 53.07-4.58 48.5 0 40.45 0L40.45 0 33.65 0 33.65-35 40.45-35Q48.5-35 53.07-30.43 57.65-25.85 57.7-17.5ZM38.35-4.4L41.05-4.4Q46.6-4.4 49.57-8.08 52.55-11.75 52.65-17.5L52.65-17.5Q52.55-23.25 49.57-26.93 46.6-30.6 41.05-30.6L41.05-30.6 38.35-30.6 38.35-4.4ZM68.15-12.8L68.15 0 63.7 0 63.7-22Q63.7-27.4 67.17-31.2 70.65-35 76.15-35L76.15-35 87.6-35 87.6 0 82.9 0 82.9-30.6 76.15-30.6Q72.5-30.6 70.32-28.45 68.15-26.3 68.15-21.6L68.15-21.6 68.15-17.35Q70.95-20.3 76.15-20.3L76.15-20.3 80.7-20.3 80.7-15.9 76.15-15.9Q73.25-15.9 71.42-15.2 69.6-14.5 68.15-12.8L68.15-12.8ZM94.09-17.5L94.09-17.5Q94.14-25.85 98.72-30.43 103.29-35 111.34-35L111.34-35 114.59-35 114.59-30.6 110.74-30.6Q105.19-30.6 102.22-26.93 99.24-23.25 99.14-17.5L99.14-17.5Q99.24-11.75 102.22-8.08 105.19-4.4 110.74-4.4L110.74-4.4 114.59-4.4 114.59 0 111.34 0Q103.29 0 98.72-4.58 94.14-9.15 94.09-17.5Z" opacity="1" transform="matrix(1,0,0,1,0,0)" fill="#ffffff" class="wordmark-text-0" data-fill-palette-color="primary" id="text-0"></path></svg></g></svg></g></svg></g></svg></g><g><svg viewBox="0 0 244.43135999999998 244.43135999999998" height="244.43135999999998" width="244.43135999999998"><g><svg viewBox="0 0 244.43135999999998 244.43135999999998" height="244.43135999999998" width="244.43135999999998"><g transform="matrix(1,0,0,1,64.6026559364499,92.70657011379141)"><svg viewBox="0 0 115.22604812710016 59.01821977241715" height="59.01821977241715" width="115.22604812710016"><g><svg xmlns="http://www.w3.org/2000/svg" xmlns:xlink="http://www.w3.org/1999/xlink" version="1.1" x="0" y="0" viewBox="4 24 82 42" enable-background="new 0 0 90 90" xml:space="preserve" height="59.01821977241715" width="115.22604812710016" class="icon-dxe-0" data-fill-palette-color="accent" id="dxe-0"><polygon points="71.57,36.655 68,38.73 68,24 4,24 4,66 68,66 68,51.271 71.57,53.345 86,61.69 86,45 86,28.31 " fill="#ffffff" data-fill-palette-color="accent"></polygon></svg></g></svg></g><g id="text-0"><path d="M7.665 67.551l1.807-4.606 16.508 6.475c4.411 1.73 7.844 4.247 10.299 7.551 2.451 3.295 3.696 7.248 3.734 11.858v0c-3.113 3.339-6.659 5.416-10.637 6.232-3.976 0.81-8.116 0.371-12.421-1.318v0l-16.955-6.65 1.843-4.699 16.36 6.416c3.269 1.282 6.226 1.819 8.87 1.611 2.642-0.202 5.28-1.408 7.915-3.617v0c-0.494-3.358-1.634-6.017-3.421-7.977-1.79-1.969-4.305-3.589-7.543-4.859v0z" fill="#ffffff" data-fill-palette-color="accent"></path><path d="M93.73 17.872v0c2.303 5.386 2.621 10.188 0.952 14.408-1.66 4.223-5.081 7.461-10.264 9.713v0l-6.565 2.852-14.677-33.784 6.564-2.852c5.183-2.252 9.884-2.543 14.104-0.875 4.226 1.666 7.521 5.179 9.886 10.538zM80.547 38.628l2.604-1.131c3.576-1.553 5.806-3.928 6.691-7.125 0.885-3.196 0.559-6.658-0.98-10.385v0c-1.676-3.675-3.985-6.279-6.926-7.813-2.938-1.528-6.195-1.515-9.77 0.038v0l-2.604 1.131z" fill="#ffffff" data-fill-palette-color="accent"></path><path d="M156.599 26.122l-5.051 12.492-4.337-1.753 8.678-21.463c1.421-3.515 3.762-6.051 7.022-7.609 3.254-1.56 6.67-1.616 10.247-0.169v0l11.176 4.518-13.807 34.149-4.587-1.854 12.068-29.85-6.589-2.664c-2.372-0.959-4.548-1.027-6.527-0.202-1.979 0.824-3.587 2.765-4.824 5.824v0l-1.674 4.142c2.597-1.178 5.585-1.084 8.964 0.282v0l4.448 1.798-1.735 4.291-4.448-1.798c-1.884-0.762-3.512-1.154-4.883-1.177-1.371-0.022-2.751 0.325-4.141 1.043z" fill="#ffffff" data-fill-palette-color="accent"></path><path d="M218.924 73.657v0c5.383-2.31 10.188-2.634 14.417-0.973 4.225 1.655 7.467 5.072 9.724 10.252v0l1.366 3.134-4.251 1.853-1.618-3.711c-1.558-3.574-3.932-5.803-7.124-6.686-3.198-0.882-6.662-0.549-10.393 0.997v0c-3.667 1.678-6.265 3.988-7.796 6.931-1.531 2.943-1.517 6.201 0.041 9.774v0l1.617 3.711-4.242 1.849-1.366-3.133c-2.258-5.18-2.555-9.881-0.892-14.103 1.655-4.225 5.161-7.523 10.517-9.895z" fill="#ffffff" data-fill-palette-color="accent"></path><path d="M52.735 166.378l1.806 4.606-16.508 6.475c-4.411 1.73-8.64 2.218-12.686 1.465-4.038-0.75-7.638-2.802-10.801-6.157v0c0.013-4.565 1.201-8.499 3.564-11.802 2.365-3.297 5.703-5.791 10.014-7.482v0l16.946-6.647 1.843 4.7-16.359 6.416c-3.269 1.282-5.803 2.899-7.601 4.85-1.8 1.944-2.915 4.622-3.345 8.033v0c2.645 2.126 5.293 3.303 7.945 3.53 2.649 0.221 5.59-0.303 8.822-1.57v0z" fill="#ffffff" data-fill-palette-color="accent"></path><path d="M98.352 223.119v0c-2.373 5.363-5.669 8.875-9.886 10.538-4.226 1.666-8.93 1.373-14.113-0.878v0l-6.556-2.848 14.678-33.784 6.555 2.848c5.183 2.252 8.607 5.491 10.274 9.716 1.663 4.217 1.345 9.02-0.952 14.408zM74.171 227.654l2.613 1.135c3.569 1.551 6.824 1.559 9.765 0.025 2.941-1.534 5.249-4.139 6.925-7.814v0c1.539-3.727 1.866-7.189 0.981-10.385-0.885-3.196-3.113-5.57-6.682-7.121v0l-2.613-1.135z" fill="#ffffff" data-fill-palette-color="accent"></path><path d="M155.963 223.917l5.05 12.492-4.337 1.754-8.677-21.463c-1.421-3.515-1.501-6.966-0.238-10.351 1.262-3.385 3.682-5.801 7.258-7.248v0l11.167-4.514 13.806 34.149-4.587 1.855-12.071-29.859-6.58 2.66c-2.379 0.962-3.992 2.43-4.839 4.404-0.85 1.968-0.657 4.481 0.579 7.54v0l1.674 4.142c1.048-2.652 3.265-4.662 6.651-6.031v0l4.439-1.795 1.735 4.291-4.439 1.795c-1.891 0.764-3.336 1.615-4.338 2.551-1.004 0.931-1.755 2.14-2.253 3.628z" fill="#ffffff" data-fill-palette-color="accent"></path><path d="M208.31 173.326v0c-5.356-2.371-8.862-5.669-10.517-9.895-1.664-4.222-1.366-8.923 0.892-14.103v0l1.366-3.133 4.242 1.849-1.617 3.711c-1.555 3.567-1.569 6.826-0.041 9.774 1.531 2.943 4.13 5.25 7.8 6.922v0c3.729 1.553 7.192 1.888 10.389 1.007 3.2-0.888 5.578-3.115 7.133-6.683v0l1.617-3.711 4.243 1.85-1.366 3.133c-2.258 5.18-5.5 8.598-9.725 10.253-4.222 1.664-9.027 1.339-14.416-0.974z" fill="#ffffff" data-fill-palette-color="accent"></path><path d="M4.23 125.804c0-7.771 6.3-14.071 14.071-14.071 7.771 0 14.071 6.3 14.07 14.071 0 7.771-6.3 14.071-14.07 14.07-7.771 0-14.071-6.3-14.071-14.07z" fill="#ffffff" data-fill-palette-color="accent"></path><path d="M211.755 125.804c0-7.771 6.3-14.071 14.07-14.071 7.771 0 14.071 6.3 14.071 14.071 0 7.771-6.3 14.071-14.071 14.07-7.771 0-14.071-6.3-14.07-14.07z" fill="#ffffff" data-fill-palette-color="accent"></path></g><g id="text-1"></g></svg></g></svg></g></svg></g><defs></defs></svg><rect width="395.5199999999999" height="135.19745172760733" fill="none" stroke="none" visibility="hidden"></rect></g></svg></g></svg>